
<svg width="123" height="26" viewBox="0 0 123 26" fill="none" xmlns="http://www.w3.org/2000/svg">
<g clip-path="url(#clip0_16539_108)">
<path d="M10.4385 4.50863C10.6372 4.53304 10.8391 4.51256 11.0285 4.44876C11.218 4.38495 11.3901 4.2795 11.5318 4.14046C11.6734 4.00142 11.7808 3.83245 11.8458 3.64645C11.9108 3.46046 11.9317 3.26234 11.9068 3.06722C11.9328 2.87158 11.9129 2.67269 11.8484 2.48581C11.7839 2.29894 11.6766 2.12905 11.5349 1.98921C11.3931 1.84936 11.2205 1.74328 11.0305 1.6791C10.8404 1.61492 10.6379 1.59436 10.4385 1.61898C10.2388 1.5946 10.0361 1.61528 9.84578 1.67944C9.65548 1.7436 9.4826 1.84955 9.34032 1.98922C9.19804 2.12889 9.09011 2.29859 9.02475 2.48541C8.95939 2.67222 8.93833 2.87121 8.96317 3.06722C8.93808 3.26299 8.95903 3.46179 9.02441 3.64836C9.08978 3.83493 9.19785 4.00432 9.34031 4.1435C9.48277 4.28269 9.65583 4.38797 9.84619 4.45127C10.0366 4.51456 10.2392 4.53419 10.4385 4.50863Z" fill="#3F3E3E"/>
<path d="M13.5839 15.5821H4.77381C4.47006 15.5937 4.16792 15.5334 3.89296 15.4061C3.61799 15.2789 3.37829 15.0885 3.19412 14.8511C2.77342 14.3013 2.5595 13.6255 2.58869 12.9384C2.59401 11.8488 2.72001 10.7631 2.96447 9.70033L3.00623 9.49539H0.695843L0.654089 9.60469C0.226818 10.7234 0.00533062 11.9076 -5.53373e-05 13.1023C-0.0302869 13.7221 0.0717107 14.3411 0.2994 14.9199C0.52709 15.4987 0.875449 16.0244 1.32215 16.4633C1.80203 16.8881 2.36245 17.216 2.97141 17.4281C3.58036 17.6403 4.22593 17.7326 4.87123 17.6998H16.0474V6.28467H13.5839V15.5821Z" fill="#3F3E3E"/>
<path d="M6.56918 4.50886C6.76874 4.53416 6.97156 4.51443 7.16217 4.45115C7.35278 4.38787 7.52617 4.28272 7.66912 4.14371C7.81207 4.0047 7.92082 3.83549 7.98707 3.64898C8.05333 3.46247 8.07535 3.26357 8.05145 3.06745C8.07651 2.87079 8.05536 2.67111 7.98962 2.48372C7.92388 2.29634 7.8153 2.12621 7.6722 1.9864C7.52911 1.84659 7.3553 1.74081 7.1641 1.67716C6.9729 1.61351 6.7694 1.59368 6.56918 1.61921C6.37002 1.59432 6.16769 1.61477 5.97786 1.67896C5.78804 1.74316 5.61581 1.84938 5.47452 1.9894C5.33322 2.12942 5.22666 2.29949 5.16306 2.48643C5.09947 2.67338 5.08056 2.87218 5.1078 3.06745C5.08174 3.26219 5.10153 3.46021 5.16564 3.64627C5.22976 3.83233 5.3365 4.00148 5.47765 4.1407C5.6188 4.27992 5.79059 4.3855 5.97982 4.44932C6.16905 4.51315 6.37068 4.53351 6.56918 4.50886Z" fill="#3F3E3E"/>
<path d="M34.0989 24.5926C34.1128 24.3945 34.085 24.1957 34.0173 24.0086C33.9497 23.8215 33.8435 23.65 33.7055 23.5049C33.5674 23.3597 33.4005 23.244 33.215 23.1649C33.0295 23.0858 32.8293 23.0449 32.6271 23.0449C32.4248 23.0449 32.2247 23.0858 32.0392 23.1649C31.8537 23.244 31.6867 23.3597 31.5487 23.5049C31.4106 23.65 31.3045 23.8215 31.2368 24.0086C31.1691 24.1957 31.1414 24.3945 31.1552 24.5926C31.1301 24.7874 31.1509 24.9854 31.2159 25.1711C31.2809 25.3569 31.3885 25.5255 31.5303 25.6641C31.6721 25.8026 31.8444 25.9074 32.034 25.9704C32.2235 26.0333 32.4252 26.0527 32.6236 26.0271C32.8222 26.0525 33.0242 26.0329 33.2139 25.97C33.4037 25.9071 33.5764 25.8025 33.7187 25.6641C33.861 25.5257 33.9692 25.3572 34.0351 25.1715C34.101 24.9858 34.1228 24.7878 34.0989 24.5926Z" fill="#3F3E3E"/>
<path d="M34.0989 20.7946C34.1228 20.5994 34.101 20.4014 34.0351 20.2157C33.9692 20.03 33.861 19.8615 33.7187 19.7231C33.5764 19.5848 33.4037 19.4801 33.2139 19.4172C33.0242 19.3543 32.8222 19.3347 32.6236 19.3601C32.4252 19.3345 32.2235 19.3539 32.034 19.4168C31.8444 19.4798 31.6721 19.5846 31.5303 19.7231C31.3885 19.8617 31.2809 20.0303 31.2159 20.2161C31.1509 20.4019 31.1301 20.5998 31.1552 20.7946C31.1414 20.9927 31.1691 21.1915 31.2368 21.3786C31.3045 21.5657 31.4106 21.7372 31.5487 21.8823C31.6867 22.0275 31.8537 22.1432 32.0392 22.2223C32.2247 22.3015 32.4248 22.3423 32.6271 22.3423C32.8293 22.3423 33.0295 22.3015 33.215 22.2223C33.4005 22.1432 33.5674 22.0275 33.7055 21.8823C33.8435 21.7372 33.9497 21.5657 34.0173 21.3786C34.085 21.1915 34.1128 20.9927 34.0989 20.7946Z" fill="#3F3E3E"/>
<path d="M49.193 4.50859C49.3915 4.53324 49.5932 4.51288 49.7824 4.44905C49.9716 4.38523 50.1434 4.27965 50.2846 4.14043C50.4257 4.00121 50.5325 3.83206 50.5966 3.646C50.6607 3.45994 50.6805 3.26192 50.6544 3.06718C50.6683 2.86909 50.6405 2.67031 50.5729 2.48319C50.5052 2.29608 50.399 2.12462 50.261 1.97948C50.123 1.83434 49.956 1.71861 49.7705 1.63949C49.585 1.56036 49.3849 1.51953 49.1826 1.51953C48.9803 1.51953 48.7802 1.56036 48.5947 1.63949C48.4092 1.71861 48.2422 1.83434 48.1042 1.97948C47.9662 2.12462 47.86 2.29608 47.7923 2.48319C47.7247 2.67031 47.6969 2.86909 47.7108 3.06718C47.6869 3.26331 47.7089 3.4622 47.7751 3.64871C47.8414 3.83522 47.9501 4.00443 48.0931 4.14344C48.2361 4.28245 48.4094 4.3876 48.6001 4.45088C48.7907 4.51416 48.9935 4.53389 49.193 4.50859Z" fill="#3F3E3E"/>
<path d="M53.0134 4.50859C53.2127 4.53414 53.4153 4.51451 53.6057 4.45122C53.7961 4.38792 53.9691 4.28264 54.1116 4.14346C54.2541 4.00427 54.3621 3.83489 54.4275 3.64831C54.4929 3.46174 54.5138 3.26294 54.4887 3.06718C54.5026 2.86909 54.4749 2.67031 54.4072 2.48319C54.3395 2.29608 54.2333 2.12462 54.0953 1.97948C53.9573 1.83434 53.7903 1.71861 53.6048 1.63949C53.4193 1.56036 53.2192 1.51953 53.0169 1.51953C52.8146 1.51953 52.6145 1.56036 52.429 1.63949C52.2435 1.71861 52.0765 1.83434 51.9385 1.97948C51.8005 2.12462 51.6943 2.29608 51.6266 2.48319C51.559 2.67031 51.5312 2.86909 51.5451 3.06718C51.5202 3.26229 51.5411 3.46041 51.6061 3.64641C51.6711 3.8324 51.7785 4.00137 51.9201 4.14041C52.0618 4.27946 52.2339 4.3849 52.4234 4.44871C52.6129 4.51252 52.8147 4.533 53.0134 4.50859Z" fill="#3F3E3E"/>
<path d="M61.8931 4.50879C62.0918 4.5332 62.2936 4.51272 62.4831 4.44892C62.6726 4.38511 62.8447 4.27966 62.9864 4.14062C63.128 4.00158 63.2354 3.83261 63.3004 3.64661C63.3654 3.46062 63.3863 3.2625 63.3614 3.06738C63.3614 2.6851 63.2067 2.31847 62.9313 2.04816C62.656 1.77784 62.2825 1.62598 61.8931 1.62598C61.5036 1.62598 61.1302 1.77784 60.8548 2.04816C60.5794 2.31847 60.4247 2.6851 60.4247 3.06738C60.3999 3.2625 60.4207 3.46062 60.4857 3.64661C60.5507 3.83261 60.6581 4.00158 60.7998 4.14062C60.9414 4.27966 61.1135 4.38511 61.303 4.44892C61.4925 4.51272 61.6943 4.5332 61.8931 4.50879Z" fill="#3F3E3E"/>
<path d="M60.6265 15.5822H55.2612V6.28481H51.7817C49.9393 6.19504 48.1265 6.76557 46.6807 7.89017C46.0501 8.43894 45.5532 9.11984 45.2268 9.88251C44.9004 10.6452 44.7528 11.4701 44.7949 12.2964C44.7529 13.4807 45.1373 14.6416 45.8805 15.5754H41.9347C41.3215 15.6052 40.7189 15.4105 40.2437 15.0289C40.0357 14.8433 39.8722 14.6146 39.7651 14.3594C39.658 14.1043 39.6099 13.829 39.6243 13.5533V0H37.0634V15.5822H33.403C32.7898 15.6121 32.1872 15.4173 31.712 15.0357C31.5039 14.8501 31.3405 14.6214 31.2334 14.3663C31.1263 14.1111 31.0782 13.8358 31.0926 13.5602V6.28481H28.5317V15.5822H22.5261V0H19.9583V17.6999H31.0926V16.7641C31.4234 17.089 31.8212 17.3407 32.2594 17.5021C32.6975 17.6635 33.1657 17.731 33.6327 17.6999H39.6174V16.7641C39.9482 17.089 40.346 17.3407 40.7841 17.5021C41.2222 17.6635 41.6905 17.731 42.1574 17.6999H63.1874V6.28481H60.6265V15.5822ZM52.7907 8.39569V15.5822H50.6056C48.4205 15.5822 47.3558 14.5097 47.3558 12.3032C47.3261 11.7686 47.4161 11.2342 47.6192 10.7373C47.8224 10.2405 48.1339 9.79331 48.5318 9.42722C49.4827 8.69024 50.6768 8.32301 51.8861 8.39569H52.7907Z" fill="#3F3E3E"/>
<path d="M121.539 18.3353V12.1461C121.539 12.1461 121.469 10.7116 119.11 10.7116C119.11 10.7116 116.542 3.76412 113.905 2.67111C111.267 1.5781 100.035 2.26806 100.035 2.26806V13.8403C100.035 13.8403 110.369 11.1898 111.963 19.8997C111.963 19.8997 114.461 19.0868 114.461 22.0106H121.33C121.33 22.0106 123 22.2838 123 20.3096C123 18.3353 121.539 18.3353 121.539 18.3353ZM105.811 8.15666L103.118 8.10201V3.62749C112.374 3.2791 113.132 4.20816 113.132 4.20816C116.305 6.44883 117.788 12.7746 117.788 12.7746C111.037 8.88078 105.811 8.15666 105.811 8.15666Z" fill="url(#paint0_linear_16539_108)"/>
<path d="M105.777 15.1382C104.857 15.1382 103.958 15.406 103.193 15.9077C102.429 16.4094 101.833 17.1225 101.481 17.9568C101.129 18.791 101.038 19.7089 101.218 20.5943C101.398 21.4797 101.841 22.2928 102.492 22.9307C103.143 23.5686 103.972 24.0027 104.874 24.178C105.776 24.3533 106.711 24.2619 107.56 23.9155C108.41 23.5691 109.135 22.9831 109.645 22.2318C110.155 21.4804 110.426 20.5975 110.425 19.6947C110.423 18.4856 109.933 17.3266 109.061 16.4723C108.19 15.618 107.008 15.1382 105.777 15.1382ZM105.777 22.3179C105.248 22.3179 104.731 22.164 104.292 21.8758C103.852 21.5876 103.51 21.1779 103.308 20.6985C103.105 20.2192 103.053 19.6918 103.156 19.1829C103.259 18.6741 103.513 18.2066 103.887 17.8398C104.261 17.4729 104.737 17.2231 105.255 17.1219C105.774 17.0206 106.311 17.0726 106.799 17.2711C107.287 17.4697 107.705 17.8059 107.998 18.2373C108.292 18.6687 108.449 19.1758 108.449 19.6947C108.449 20.0392 108.38 20.3803 108.245 20.6985C108.111 21.0168 107.914 21.306 107.666 21.5496C107.418 21.7932 107.123 21.9864 106.799 22.1182C106.475 22.25 106.127 22.3179 105.777 22.3179Z" fill="url(#paint1_linear_16539_108)"/>
<path d="M105.776 18.1987C105.831 18.1987 105.885 18.1881 105.935 18.1674C105.985 18.1467 106.031 18.1164 106.069 18.0783C106.107 18.0401 106.138 17.9949 106.158 17.9452C106.178 17.8955 106.188 17.8424 106.187 17.7889C106.188 17.7357 106.178 17.6828 106.158 17.6335C106.137 17.5842 106.107 17.5394 106.069 17.5018C106.031 17.4642 105.985 17.4345 105.935 17.4146C105.884 17.3947 105.831 17.3849 105.776 17.3858C105.722 17.3849 105.668 17.3947 105.617 17.4145C105.567 17.4343 105.52 17.4639 105.482 17.5014C105.443 17.5389 105.412 17.5837 105.391 17.633C105.37 17.6824 105.359 17.7353 105.359 17.7889C105.359 17.8427 105.37 17.896 105.391 17.9457C105.412 17.9954 105.442 18.0406 105.481 18.0787C105.52 18.1167 105.566 18.1469 105.617 18.1675C105.667 18.1881 105.722 18.1987 105.776 18.1987Z" fill="url(#paint2_linear_16539_108)"/>
<path d="M105.776 18.3081C105.501 18.3081 105.232 18.3882 105.003 18.5384C104.774 18.6885 104.596 18.9019 104.491 19.1515C104.385 19.4012 104.358 19.6759 104.411 19.9409C104.465 20.2059 104.598 20.4494 104.792 20.6405C104.987 20.8315 105.235 20.9617 105.505 21.0144C105.775 21.0671 106.055 21.04 106.309 20.9366C106.563 20.8332 106.781 20.6581 106.934 20.4334C107.087 20.2087 107.168 19.9446 107.168 19.6744C107.168 19.312 107.022 18.9645 106.761 18.7083C106.5 18.4521 106.146 18.3081 105.776 18.3081Z" fill="url(#paint3_linear_16539_108)"/>
<path d="M103.898 19.1276C103.993 19.1826 104.106 19.1984 104.213 19.1715C104.32 19.1446 104.412 19.0772 104.468 18.9841C104.496 18.8964 104.493 18.802 104.46 18.7161C104.426 18.6302 104.365 18.5578 104.284 18.5106C104.204 18.4633 104.11 18.4438 104.017 18.4554C103.924 18.4669 103.838 18.5088 103.772 18.5742C103.716 18.6646 103.698 18.7725 103.722 18.8756C103.745 18.9787 103.808 19.069 103.898 19.1276Z" fill="url(#paint4_linear_16539_108)"/>
<path d="M103.898 20.3028C103.803 20.3571 103.735 20.4454 103.706 20.5488C103.677 20.6522 103.691 20.7626 103.744 20.8561C103.81 20.9216 103.896 20.9634 103.989 20.975C104.082 20.9865 104.176 20.9671 104.257 20.9198C104.337 20.8725 104.399 20.8001 104.432 20.7142C104.465 20.6284 104.468 20.534 104.44 20.4462C104.384 20.3603 104.298 20.2979 104.197 20.2714C104.097 20.2449 103.99 20.2561 103.898 20.3028Z" fill="url(#paint5_linear_16539_108)"/>
<path d="M105.776 21.1772C105.666 21.1772 105.559 21.2204 105.481 21.2973C105.403 21.3742 105.359 21.4784 105.359 21.5871C105.359 21.6406 105.37 21.6936 105.391 21.743C105.412 21.7923 105.443 21.837 105.482 21.8746C105.52 21.9121 105.567 21.9416 105.617 21.9615C105.668 21.9813 105.722 21.9911 105.776 21.9902C105.831 21.9911 105.884 21.9813 105.935 21.9614C105.985 21.9414 106.031 21.9118 106.069 21.8742C106.107 21.8366 106.137 21.7918 106.158 21.7425C106.178 21.6931 106.188 21.6403 106.187 21.5871C106.188 21.5336 106.178 21.4805 106.158 21.4308C106.138 21.3811 106.107 21.3359 106.069 21.2977C106.031 21.2595 105.985 21.2292 105.935 21.2086C105.885 21.1879 105.831 21.1772 105.776 21.1772Z" fill="url(#paint6_linear_16539_108)"/>
<path d="M107.676 20.3028C107.63 20.2758 107.578 20.258 107.524 20.2506C107.471 20.2431 107.416 20.2461 107.364 20.2595C107.312 20.2728 107.262 20.2962 107.219 20.3282C107.176 20.3603 107.14 20.4004 107.113 20.4463C107.068 20.4905 107.035 20.5439 107.014 20.6027C106.994 20.6615 106.988 20.724 106.996 20.7856C107.004 20.8471 107.026 20.9061 107.06 20.9581C107.095 21.01 107.141 21.0536 107.195 21.0855C107.249 21.1174 107.31 21.1369 107.373 21.1423C107.436 21.1478 107.499 21.1392 107.558 21.1171C107.618 21.095 107.671 21.06 107.714 21.0148C107.757 20.9696 107.79 20.9154 107.808 20.8562C107.838 20.8115 107.857 20.7616 107.866 20.7094C107.875 20.6571 107.874 20.6036 107.861 20.5521C107.849 20.5005 107.826 20.4518 107.795 20.409C107.763 20.3662 107.722 20.3301 107.676 20.3028Z" fill="url(#paint7_linear_16539_108)"/>
<path d="M107.266 18.3899C107.218 18.4168 107.176 18.4527 107.143 18.4954C107.11 18.5381 107.085 18.5868 107.071 18.6389C107.057 18.6909 107.053 18.7452 107.06 18.7986C107.067 18.852 107.085 18.9035 107.113 18.9501C107.14 18.996 107.176 19.0361 107.219 19.0681C107.263 19.1002 107.312 19.1236 107.364 19.1369C107.416 19.1502 107.471 19.1533 107.525 19.1458C107.578 19.1384 107.63 19.1206 107.676 19.0936C107.724 19.068 107.767 19.0332 107.8 18.9912C107.834 18.9491 107.859 18.9008 107.874 18.8491C107.888 18.7973 107.891 18.7433 107.884 18.6902C107.876 18.6371 107.858 18.5861 107.829 18.5402C107.774 18.4478 107.684 18.3803 107.579 18.3522C107.473 18.3241 107.361 18.3377 107.266 18.3899Z" fill="url(#paint8_linear_16539_108)"/>
<path d="M98.8175 2.29551H96.7716C96.5038 2.28915 96.2374 2.33465 95.9875 2.42941C95.7376 2.52417 95.5093 2.66633 95.3154 2.84777C95.1215 3.02921 94.9659 3.24637 94.8576 3.48684C94.7492 3.72732 94.6902 3.98639 94.6839 4.24926V6.36014H77.356C77.1533 6.34648 76.9499 6.37389 76.7584 6.44065C76.5669 6.50742 76.3915 6.61212 76.2429 6.74826C76.0944 6.8844 75.976 7.04906 75.895 7.23202C75.814 7.41497 75.7723 7.61232 75.7723 7.8118C75.7723 8.01127 75.814 8.20862 75.895 8.39158C75.976 8.57453 76.0944 8.7392 76.2429 8.87533C76.3915 9.01147 76.5669 9.11617 76.7584 9.18294C76.9499 9.24971 77.1533 9.27711 77.356 9.26345H89.7291C89.9137 9.26345 90.0907 9.33542 90.2212 9.46354C90.3517 9.59165 90.425 9.76541 90.425 9.94658C90.425 10.1278 90.3517 10.3015 90.2212 10.4296C90.0907 10.5577 89.9137 10.6297 89.7291 10.6297H70.0769C69.8742 10.6161 69.6708 10.6435 69.4793 10.7102C69.2878 10.777 69.1124 10.8817 68.9638 11.0178C68.8153 11.154 68.6969 11.3186 68.6159 11.5016C68.5349 11.6845 68.4932 11.8819 68.4932 12.0814C68.4932 12.2808 68.5349 12.4782 68.6159 12.6612C68.6969 12.8441 68.8153 13.0088 68.9638 13.1449C69.1124 13.281 69.2878 13.3857 69.4793 13.4525C69.6708 13.5193 69.8742 13.5467 70.0769 13.533H85.7833C85.9679 13.533 86.1449 13.605 86.2754 13.7331C86.4059 13.8612 86.4792 14.035 86.4792 14.2162C86.4792 14.3973 86.4059 14.5711 86.2754 14.6992C86.1449 14.8273 85.9679 14.8993 85.7833 14.8993H82.0533C81.8587 14.8993 81.6659 14.9369 81.4861 15.0101C81.3063 15.0832 81.1429 15.1904 81.0052 15.3255C80.8676 15.4606 80.7584 15.621 80.6839 15.7975C80.6094 15.9741 80.5711 16.1633 80.5711 16.3544C80.5711 16.5454 80.6094 16.7347 80.6839 16.9112C80.7584 17.0877 80.8676 17.2481 81.0052 17.3833C81.1429 17.5184 81.3063 17.6255 81.4861 17.6987C81.6659 17.7718 81.8587 17.8094 82.0533 17.8094H92.3178C92.5024 17.8094 92.6794 17.8814 92.8099 18.0095C92.9404 18.1376 93.0137 18.3114 93.0137 18.4926C93.0137 18.6737 92.9404 18.8475 92.8099 18.9756C92.6794 19.1037 92.5024 19.1757 92.3178 19.1757H78.1076C77.9049 19.162 77.7014 19.1894 77.51 19.2562C77.3185 19.323 77.143 19.4277 76.9945 19.5638C76.846 19.7 76.7275 19.8646 76.6466 20.0476C76.5656 20.2305 76.5238 20.4279 76.5238 20.6273C76.5238 20.8268 76.5656 21.0242 76.6466 21.2071C76.7275 21.3901 76.846 21.5547 76.9945 21.6909C77.143 21.827 77.3185 21.9317 77.51 21.9985C77.7014 22.0653 77.9049 22.0927 78.1076 22.079H98.8175V3.7984C98.8395 3.68118 98.8511 3.56234 98.8523 3.44317C98.8513 3.32399 98.8396 3.20513 98.8175 3.08794V2.29551Z" fill="url(#paint9_linear_16539_108)"/>
<path d="M79.1931 16.3201C79.1822 15.9257 79.013 15.5515 78.7223 15.279C78.4317 15.0064 78.0431 14.8577 77.6413 14.865H72.6656C72.2725 14.865 71.8955 15.0183 71.6175 15.2912C71.3395 15.5641 71.1833 15.9342 71.1833 16.3201C71.1833 16.706 71.3395 17.0761 71.6175 17.349C71.8955 17.6218 72.2725 17.7751 72.6656 17.7751H77.6413C78.0431 17.7825 78.4317 17.6337 78.7223 17.3612C79.013 17.0887 79.1822 16.7145 79.1931 16.3201Z" fill="url(#paint10_linear_16539_108)"/>
<path d="M87.1891 5.19863H91.775C92.1762 5.20781 92.5648 5.06057 92.8557 4.78914C93.1465 4.5177 93.3159 4.1442 93.3269 3.75039C93.3224 3.55481 93.2786 3.36202 93.1982 3.18303C93.1178 3.00404 93.0022 2.84236 92.8581 2.70724C92.7139 2.57211 92.5441 2.46618 92.3583 2.39551C92.1725 2.32483 91.9743 2.29079 91.775 2.29532H87.1891C86.7879 2.28799 86.4001 2.43699 86.1105 2.70969C85.821 2.9824 85.6533 3.3566 85.6442 3.75039C85.6551 4.14299 85.8236 4.51545 86.1129 4.78669C86.4023 5.05793 86.789 5.20599 87.1891 5.19863Z" fill="url(#paint11_linear_16539_108)"/>
<path d="M73.2433 9.26315C73.5364 9.2618 73.8226 9.17514 74.0656 9.01413C74.3086 8.85312 74.4975 8.625 74.6084 8.35861C74.7193 8.09221 74.7472 7.79952 74.6887 7.51753C74.6302 7.23554 74.4877 6.97693 74.2795 6.77439C74.0712 6.57185 73.8064 6.43449 73.5186 6.37967C73.2308 6.32485 72.933 6.35504 72.6626 6.46641C72.3923 6.57779 72.1617 6.76535 72 7.00538C71.8383 7.24541 71.7527 7.52713 71.754 7.81491C71.763 8.1986 71.9232 8.56392 72.201 8.83402C72.4787 9.10412 72.8523 9.25795 73.2433 9.26315Z" fill="url(#paint12_linear_16539_108)"/>
<path d="M0.695801 25.2146V20.4941H2.0876L3.16624 22.2293C3.48399 22.7496 3.76532 23.2905 4.00828 23.8483C3.93229 23.1884 3.89743 22.5245 3.90389 21.8604V20.4941H4.98253V25.2282H3.75079L2.64432 23.3906C2.31612 22.8482 2.01649 22.2895 1.74661 21.7169C1.74661 22.3454 1.78836 23.0081 1.78836 23.7663V25.1941L0.695801 25.2146Z" fill="#3F3E3E"/>
<path d="M15.8526 24.9959C15.2935 25.168 14.7125 25.2623 14.1267 25.276C13.3745 25.3268 12.63 25.1003 12.039 24.6407C11.7962 24.4238 11.6049 24.1572 11.4786 23.8597C11.3524 23.5622 11.2942 23.2411 11.3083 22.9192C11.3083 21.348 12.5679 20.4462 14.2659 20.4462C14.7545 20.4331 15.2411 20.5119 15.6995 20.6785L15.4559 21.5324C15.0717 21.3897 14.6626 21.3224 14.252 21.3343C14.0338 21.3056 13.8119 21.3237 13.6016 21.3873C13.3912 21.4508 13.1973 21.5583 13.0333 21.7024C12.8693 21.8466 12.7391 22.0238 12.6515 22.2221C12.564 22.4203 12.5212 22.6348 12.5262 22.8509C12.5144 23.0617 12.5489 23.2725 12.6273 23.469C12.7057 23.6656 12.8261 23.8434 12.9804 23.9904C13.1348 24.1374 13.3195 24.2502 13.522 24.3211C13.7246 24.392 13.9403 24.4195 14.1546 24.4016C14.3502 24.4136 14.5464 24.388 14.7322 24.3264V23.3427H13.918V22.5025H15.8456L15.8526 24.9959Z" fill="#3F3E3E"/>
<path d="M22.3035 20.4941H23.4795V24.3265H25.5672V25.2282H22.3035V20.4941Z" fill="#3F3E3E"/>
<path d="M43.3822 20.4941V25.2282H42.2062V20.4941H43.3822Z" fill="#3F3E3E"/>
<path d="M51.1345 23.9986L50.8005 25.2146H49.5548L51.1345 20.4941H52.6724L54.28 25.2146H53.0134L52.6168 23.9986H51.1345ZM52.4497 23.2267L52.1227 22.2225C52.0322 21.9424 51.9417 21.594 51.8652 21.3071C51.7886 21.594 51.7121 21.9492 51.6286 22.2225L51.3015 23.2267H52.4497Z" fill="#3F3E3E"/>
<path d="M60.8632 21.3822H59.4714V20.4941H63.452V21.3822H62.0602V25.2146H60.8632V21.3822Z" fill="#3F3E3E"/>
</g>
<defs>
<linearGradient id="paint0_linear_16539_108" x1="117.168" y1="11.3742" x2="75.4106" y2="16.6667" gradientUnits="userSpaceOnUse">
<stop stop-color="#FAA71A"/>
<stop offset="1" stop-color="#EC1B24"/>
</linearGradient>
<linearGradient id="paint1_linear_16539_108" x1="118.031" y1="18.2054" x2="76.2736" y2="23.4979" gradientUnits="userSpaceOnUse">
<stop stop-color="#FAA71A"/>
<stop offset="1" stop-color="#EC1B24"/>
</linearGradient>
<linearGradient id="paint2_linear_16539_108" x1="117.795" y1="16.3269" x2="76.0299" y2="21.6194" gradientUnits="userSpaceOnUse">
<stop stop-color="#FAA71A"/>
<stop offset="1" stop-color="#EC1B24"/>
</linearGradient>
<linearGradient id="paint3_linear_16539_108" x1="118.031" y1="18.2056" x2="76.2735" y2="23.4981" gradientUnits="userSpaceOnUse">
<stop stop-color="#FAA71A"/>
<stop offset="1" stop-color="#EC1B24"/>
</linearGradient>
<linearGradient id="paint4_linear_16539_108" x1="117.878" y1="17.0645" x2="76.1412" y2="22.3499" gradientUnits="userSpaceOnUse">
<stop stop-color="#FAA71A"/>
<stop offset="1" stop-color="#EC1B24"/>
</linearGradient>
<linearGradient id="paint5_linear_16539_108" x1="118.122" y1="18.9434" x2="76.3779" y2="24.2287" gradientUnits="userSpaceOnUse">
<stop stop-color="#FAA71A"/>
<stop offset="1" stop-color="#EC1B24"/>
</linearGradient>
<linearGradient id="paint6_linear_16539_108" x1="118.268" y1="20.0842" x2="76.51" y2="25.3767" gradientUnits="userSpaceOnUse">
<stop stop-color="#FAA71A"/>
<stop offset="1" stop-color="#EC1B24"/>
</linearGradient>
<linearGradient id="paint7_linear_16539_108" x1="118.17" y1="19.3464" x2="76.4335" y2="24.6318" gradientUnits="userSpaceOnUse">
<stop stop-color="#FAA71A"/>
<stop offset="1" stop-color="#EC1B24"/>
</linearGradient>
<linearGradient id="paint8_linear_16539_108" x1="117.934" y1="17.4677" x2="76.1972" y2="22.753" gradientUnits="userSpaceOnUse">
<stop stop-color="#FAA71A"/>
<stop offset="1" stop-color="#EC1B24"/>
</linearGradient>
<linearGradient id="paint9_linear_16539_108" x1="116.967" y1="9.80996" x2="75.2158" y2="15.1024" gradientUnits="userSpaceOnUse">
<stop stop-color="#FAA71A"/>
<stop offset="1" stop-color="#EC1B24"/>
</linearGradient>
<linearGradient id="paint10_linear_16539_108" x1="117.14" y1="11.1898" x2="75.3897" y2="16.4822" gradientUnits="userSpaceOnUse">
<stop stop-color="#FAA71A"/>
<stop offset="1" stop-color="#EC1B24"/>
</linearGradient>
<linearGradient id="paint11_linear_16539_108" x1="115.79" y1="0.532843" x2="74.0397" y2="5.8253" gradientUnits="userSpaceOnUse">
<stop stop-color="#FAA71A"/>
<stop offset="1" stop-color="#EC1B24"/>
</linearGradient>
<linearGradient id="paint12_linear_16539_108" x1="116.055" y1="2.58212" x2="74.2972" y2="7.87458" gradientUnits="userSpaceOnUse">
<stop stop-color="#FAA71A"/>
<stop offset="1" stop-color="#EC1B24"/>
</linearGradient>
<clipPath id="clip0_16539_108">
<rect width="123" height="26" fill="white"/>
</clipPath>
</defs>
</svg>